<?xml version="1.0" standalone="no"?>
<!DOCTYPE svg PUBLIC "-//W3C//DTD SVG 20010904//EN"
 "http://www.w3.org/TR/2001/REC-SVG-20010904/DTD/svg10.dtd">
<svg version="1.0" xmlns="http://www.w3.org/2000/svg"
 width="1900.000000pt" height="1900.000000pt" viewBox="0 0 1900.000000 1900.000000"
 preserveAspectRatio="xMidYMid meet">
<metadata>
Created by potrace 1.11, written by Peter Selinger 2001-2013
</metadata>
<g transform="translate(0.000000,1900.000000) scale(0.100000,-0.100000)"
fill="#000000" stroke="none">
<path d="M11220 14654 c-1219 -338 -2442 -969 -3564 -1837 -1053 -816 -1962
-1826 -2522 -2804 -432 -753 -668 -1399 -759 -2073 -22 -159 -30 -525 -16
-680 57 -617 275 -1093 682 -1485 147 -142 250 -218 452 -335 132 -75 417
-202 417 -185 0 2 -19 25 -42 52 -308 355 -442 985 -362 1703 174 1576 1283
3649 2861 5350 897 967 1895 1758 2826 2239 97 50 171 91 164 90 -7 0 -68 -16
-137 -35z"/>
<path d="M14178 14645 c152 -173 281 -447 340 -725 76 -355 75 -801 -4 -1258
-220 -1291 -1023 -2891 -2165 -4317 -838 -1046 -1767 -1915 -2738 -2559 -284
-189 -469 -299 -736 -438 -104 -54 -176 -96 -160 -92 53 11 246 65 391 110
1028 317 2142 895 3089 1603 1077 805 1936 1706 2572 2701 252 394 494 874
648 1285 196 525 289 995 289 1470 -1 247 -15 396 -59 600 -164 756 -642 1316
-1382 1619 -62 25 -115 46 -118 46 -4 0 11 -20 33 -45z"/>
<path d="M1660 11805 l0 -765 -560 0 -560 0 0 -345 0 -345 559 0 560 0 4
-1627 c4 -1750 3 -1709 57 -2009 115 -645 409 -946 1012 -1034 119 -18 189
-20 666 -20 l532 0 0 355 0 355 -444 0 c-460 0 -543 6 -671 46 -136 44 -261
145 -321 259 -65 124 -105 293 -124 529 -6 81 -10 693 -10 1637 l0 1509 785 0
785 0 0 345 0 345 -785 0 -785 0 0 765 0 765 -350 0 -350 0 0 -765z"/>
<path d="M17220 10035 l0 -735 480 0 480 0 0 735 0 735 -480 0 -480 0 0 -735z"/>
<path d="M17270 6617 l0 -503 -180 -895 c-99 -492 -182 -904 -185 -916 l-5
-23 294 0 294 0 366 913 366 912 0 508 0 507 -475 0 -475 0 0 -503z"/>
</g>
</svg>
